<svg width="426" height="203" viewBox="0 0 426 203" fill="none" xmlns="http://www.w3.org/2000/svg">
<g clip-path="url(#clip0_1_29)">
<path fill-rule="evenodd" clip-rule="evenodd" d="M374.698 121.733L384.719 121.833L384.669 162.227L374.676 162.211L374.699 121.733H374.698ZM261.06 155.591C258.189 158.697 257.049 160.625 252.682 162.017C248.476 163.358 243.853 163.336 239.702 161.874C221.972 155.625 222.954 121.069 248.689 120.878C254.284 120.835 255.762 122.121 260.656 123.82L261.207 121.905C262.604 121.344 268.167 121.623 269.968 121.736C270.914 126.383 269.522 144.481 270.251 148.993C270.774 152.226 272.113 152.398 273.935 154.19C273.688 155.459 270.348 161.897 269.489 162.736C265.352 162.143 262.785 159.001 261.061 155.593L261.06 155.591ZM356.498 101.375L366.39 101.515L366.352 162.215L356.453 162.231L356.358 156.586C355.937 156.691 351.921 161.089 347.959 162.27C340.445 164.51 331.746 161.772 327.467 155.082C325.209 151.552 324.234 148.203 324.096 143.95C323.666 130.655 331.359 121.075 344.364 120.871C351.539 120.758 354.127 123.037 356.43 123.071L356.498 101.375ZM99.0259 121.193C128.559 116.213 135.313 157.423 107.733 162.67C95.9938 164.903 83.7972 158.444 81.5518 146.312C79.2222 133.723 86.582 123.292 99.0259 121.193ZM289.143 126.25C290.055 125.854 290.825 124.865 291.702 124.24C292.628 123.58 293.664 122.931 294.701 122.43C297.131 121.25 299.721 120.776 302.448 120.79C317.794 120.872 317.527 133.562 317.527 143.629C317.527 149.527 317.851 156.424 317.469 162.254L307.387 162.057C307.307 155.184 307.387 148.269 307.375 141.391C307.362 134.857 306.201 128.976 298.047 129.996C295.008 130.375 289.143 132.954 289.064 136.572C288.881 144.9 289.295 153.616 289.055 162.227L279.084 162.209L279.1 121.722L289.055 121.827L289.143 126.254V126.25ZM166.766 127.381C168.089 126.773 170.435 124.189 172.462 123.066C179.139 119.36 188.731 119.627 192.97 126.377C196.007 131.214 195.541 137.363 195.543 142.991C195.543 149.351 195.624 155.769 195.52 162.215L185.649 162.204C185.201 155.975 186.198 139.759 185.217 135.434C183.228 126.661 172.171 129.702 168.594 134.992L168.591 162.218L158.586 162.098C158.213 155.718 158.541 148.21 158.557 141.712C158.573 135.32 158.181 128.854 149.86 130.012C147.235 130.377 145.21 131.795 143.264 133.571C141.843 134.868 141.61 134.768 141.599 136.897C141.572 142.267 142.065 159.467 141.42 162.227L131.636 162.139L131.747 121.693L141.502 121.727L141.673 126.184C144.16 125.044 146.18 120.74 154.609 120.811C162.315 120.876 163.526 123.51 166.77 127.381H166.766ZM77.414 158.991C70.4968 165.299 38.2527 167.583 40.3279 139.461C41.9551 117.394 69.6993 116.446 77.7115 128.911C77.0932 129.979 72.0469 134.942 71.0863 135.225C63.1154 124.86 49.5945 130.798 50.6679 142.999C51.1428 148.396 54.5172 152.188 59.7338 153.412C66.9772 155.111 71.4089 151.376 75.027 150.444L77.414 158.992V158.991ZM206.302 121.695C206.824 118.294 206.412 116.356 207.422 112.645C209.784 103.981 218.391 101.511 226.628 101.481L227.782 110.575C220.406 111.093 216.287 111.789 216.411 121.659L226.49 121.756L226.479 130.587L216.531 130.671C216.046 133.546 216.425 157.62 216.393 162.833C216.366 167.374 215.503 171.788 212.307 175.096C209.734 177.76 204.365 179.561 200.537 179.499L198.387 170.831C201.082 169.069 203.528 170.11 205.526 165.757C206.922 162.718 206.428 158.222 206.428 154.83C206.428 146.875 206.582 138.764 206.394 130.736L199.528 130.693C199.104 129.121 199.304 123.745 199.344 121.759L206.302 121.695ZM377.71 102.956C385.688 100.053 389.419 111.649 382.11 114.5C374.54 117.453 369.918 105.791 377.71 102.956ZM0.116507 0.304435C0.394272 26.4771 0.132636 52.8002 0.132636 78.9908C0.132636 87.0872 -0.338669 150.394 0.487458 156.88C3.06619 177.13 16.3595 193.568 35.7206 200.109C46.928 203.895 60.5653 202.797 72.3659 202.797H268.206C320.403 202.797 372.795 202.349 424.968 202.815C425.588 190.17 425.065 176.251 425.065 163.469C425.065 151.167 425.581 53.5188 424.697 45.9762C422.376 26.1294 408.472 9.03521 389.496 2.7864C378.013 -0.99658 364.743 0.171825 352.686 0.171825H39.086C30.409 0.171825 7.06242 -0.217046 0.116507 0.304435Z" fill="#003CA7"/>
<path fill-rule="evenodd" clip-rule="evenodd" d="M166.768 127.379C163.525 123.508 162.313 120.874 154.608 120.81C146.18 120.738 144.158 125.042 141.671 126.182L141.501 121.725L131.745 121.691L131.634 162.137L141.418 162.225C142.063 159.465 141.572 142.266 141.597 136.895C141.608 134.768 141.841 134.866 143.262 133.569C145.208 131.793 147.233 130.375 149.859 130.01C158.177 128.852 158.572 135.318 158.555 141.71C158.539 148.208 158.211 155.717 158.584 162.096L168.589 162.216L168.593 134.99C172.169 129.7 183.226 126.661 185.215 135.433C186.196 139.757 185.199 155.973 185.647 162.202L195.518 162.213C195.622 155.767 195.543 149.348 195.541 142.99C195.539 137.361 196.005 131.212 192.968 126.376C188.73 119.625 179.137 119.358 172.46 123.064C170.433 124.189 168.087 126.772 166.765 127.379H166.768Z" fill="#FCFEFD"/>
<path fill-rule="evenodd" clip-rule="evenodd" d="M356.392 132.492C356.666 139.029 357.331 146.582 352.231 151.184C347.747 155.231 340.124 154.67 336.443 149.62C332.863 144.708 333.805 136.402 338.386 132.531C342.92 128.7 351.4 129.612 356.392 132.49V132.492ZM356.43 123.069C354.127 123.033 351.539 120.754 344.364 120.869C331.361 121.075 323.668 130.653 324.096 143.948C324.234 148.201 325.207 151.55 327.467 155.08C331.746 161.77 340.445 164.51 347.959 162.268C351.919 161.087 355.937 156.688 356.358 156.584L356.453 162.229L366.352 162.213L366.39 101.513L356.498 101.373L356.43 123.069Z" fill="#FCFEFD"/>
<path fill-rule="evenodd" clip-rule="evenodd" d="M260.054 132.524C260.327 134.73 260.291 141.463 259.927 143.669C258.117 154.616 245.645 157.043 240.148 149.602C236.548 144.732 237.512 136.495 242.136 132.598C246.422 128.985 255.655 129.438 260.054 132.524ZM261.06 155.591C262.784 159 265.352 162.141 269.488 162.734C270.346 161.896 273.688 155.457 273.934 154.188C272.111 152.394 270.772 152.222 270.249 148.991C269.52 144.481 270.912 126.381 269.966 121.734C268.165 121.622 262.601 121.342 261.205 121.903L260.655 123.819C255.761 122.12 254.284 120.833 248.687 120.876C222.954 121.07 221.972 155.625 239.7 161.872C243.851 163.335 248.474 163.356 252.68 162.016C257.047 160.623 258.187 158.695 261.058 155.589L261.06 155.591Z" fill="#FCFEFD"/>
<path fill-rule="evenodd" clip-rule="evenodd" d="M100.52 130.372C106.97 128.879 113.412 132.818 114.511 139.25C115.674 146.052 112.355 152.197 105.674 153.595C90.1679 156.84 85.7111 133.798 100.519 130.37L100.52 130.372ZM99.0259 121.192C86.582 123.29 79.2222 133.721 81.5518 146.31C83.7972 158.442 95.9956 164.903 107.733 162.668C135.313 157.421 128.559 116.211 99.0259 121.192Z" fill="#FCFEFD"/>
<path fill-rule="evenodd" clip-rule="evenodd" d="M206.304 121.693L199.346 121.758C199.306 123.741 199.106 129.118 199.53 130.691L206.395 130.734C206.584 138.762 206.43 146.873 206.43 154.828C206.43 158.22 206.924 162.716 205.528 165.756C203.53 170.108 201.084 169.067 198.389 170.829L200.539 179.497C204.367 179.56 209.736 177.759 212.309 175.094C215.504 171.786 216.368 167.372 216.395 162.831C216.427 157.618 216.047 133.544 216.533 130.669L226.481 130.585L226.491 121.754L216.413 121.657C216.288 111.787 220.407 111.091 227.783 110.574L226.629 101.479C218.393 101.509 209.786 103.979 207.424 112.643C206.413 116.355 206.826 118.294 206.304 121.693Z" fill="#FCFEFD"/>
<path fill-rule="evenodd" clip-rule="evenodd" d="M289.143 126.248L289.055 121.822L279.1 121.716L279.084 162.204L289.055 162.222C289.295 153.613 288.881 144.896 289.064 136.567C289.143 132.949 295.01 130.37 298.047 129.99C306.201 128.97 307.362 134.852 307.375 141.386C307.387 148.265 307.307 155.181 307.387 162.051L317.469 162.249C317.851 156.421 317.527 149.523 317.527 143.624C317.527 133.556 317.794 120.867 302.448 120.784C299.723 120.77 297.133 121.245 294.701 122.424C293.666 122.926 292.628 123.575 291.702 124.234C290.825 124.858 290.055 125.849 289.143 126.245V126.248Z" fill="#FCFEFD"/>
<path fill-rule="evenodd" clip-rule="evenodd" d="M77.4158 158.989L75.0288 150.441C71.4107 151.373 66.9808 155.107 59.7356 153.409C54.5172 152.185 51.1446 148.393 50.6697 142.995C49.5963 130.797 63.1172 124.856 71.0881 135.221C72.0486 134.938 77.095 129.976 77.7133 128.908C69.7011 116.443 41.9569 117.391 40.3297 139.458C38.2545 167.582 70.4967 165.295 77.4158 158.987V158.989Z" fill="#FCFEFD"/>
<path fill-rule="evenodd" clip-rule="evenodd" d="M100.52 130.372C85.7129 133.798 90.1697 156.84 105.676 153.597C112.357 152.199 115.676 146.052 114.513 139.252C113.412 132.82 106.97 128.881 100.522 130.374L100.52 130.372Z" fill="#003CA7"/>
<path fill-rule="evenodd" clip-rule="evenodd" d="M356.392 132.492C351.401 129.614 342.92 128.7 338.386 132.533C333.805 136.404 332.863 144.71 336.443 149.622C340.124 154.672 347.749 155.233 352.231 151.186C357.329 146.585 356.666 139.031 356.392 132.494V132.492Z" fill="#003CA7"/>
<path fill-rule="evenodd" clip-rule="evenodd" d="M260.054 132.524C255.655 129.438 246.422 128.985 242.136 132.598C237.512 136.493 236.548 144.731 240.148 149.602C245.646 157.043 258.117 154.616 259.927 143.669C260.293 141.463 260.327 134.73 260.054 132.524Z" fill="#003CA7"/>
<path fill-rule="evenodd" clip-rule="evenodd" d="M374.674 162.211L384.669 162.227L384.719 121.833L374.698 121.732L374.674 162.211Z" fill="#FCFEFD"/>
<path fill-rule="evenodd" clip-rule="evenodd" d="M377.712 102.954C369.92 105.789 374.54 117.451 382.111 114.498C389.421 111.647 385.692 100.049 377.712 102.954Z" fill="#F9FEFD"/>
</g>
<defs>
<clipPath id="clip0_1_29">
<rect width="425.272" height="202.944" fill="white"/>
</clipPath>
</defs>
</svg>
