<?xml version="1.0" encoding="UTF-8"?>
<!DOCTYPE svg PUBLIC "-//W3C//DTD SVG 1.1//EN" "http://www.w3.org/Graphics/SVG/1.1/DTD/svg11.dtd">
<!-- Creator: CorelDRAW 2021 (64-Bit) -->
<svg xmlns="http://www.w3.org/2000/svg" xml:space="preserve" width="112.52mm" height="53.6956mm" version="1.1" style="shape-rendering:geometricPrecision; text-rendering:geometricPrecision; image-rendering:optimizeQuality; fill-rule:evenodd; clip-rule:evenodd"
viewBox="0 0 2373.13 1132.48"
 xmlns:xlink="http://www.w3.org/1999/xlink"
 xmlns:xodm="http://www.corel.com/coreldraw/odm/2003">
 <defs>
  <style type="text/css">
   <![CDATA[
    .fil0 {fill:#03C4DE}
    .fil2 {fill:#05C3DE}
    .fil3 {fill:#F9FEFD}
    .fil1 {fill:#FCFEFD}
   ]]>
  </style>
 </defs>
 <g id="Capa_x0020_1">
  <metadata id="CorelCorpID_0Corel-Layer"/>
  <path class="fil0" d="M2090.91 679.3l55.92 0.56 -0.28 225.41 -55.76 -0.09 0.13 -225.88zm-634.13 188.94c-16.02,17.33 -22.38,28.09 -46.75,35.86 -23.47,7.48 -49.27,7.36 -72.43,-0.8 -98.94,-34.87 -93.46,-227.7 50.15,-228.77 31.22,-0.24 39.47,6.94 66.78,16.42l3.07 -10.69c7.8,-3.13 38.84,-1.57 48.89,-0.94 5.28,25.93 -2.49,126.92 1.58,152.1 2.92,18.04 10.39,19 20.56,29 -1.38,7.08 -20.02,43.01 -24.81,47.69 -23.09,-3.31 -37.41,-20.84 -47.03,-39.86zm532.57 -302.54l55.2 0.78 -0.21 338.72 -55.24 0.09 -0.53 -31.5c-2.35,0.59 -24.76,25.13 -46.87,31.72 -41.93,12.5 -90.47,-2.78 -114.35,-40.11 -12.6,-19.7 -18.04,-38.39 -18.81,-62.12 -2.4,-74.19 40.53,-127.65 113.1,-128.79 40.04,-0.63 54.48,12.09 67.33,12.28l0.38 -121.07zm-1436.76 110.59c164.8,-27.79 202.49,202.17 48.59,231.45 -65.51,12.46 -133.57,-23.58 -146.1,-91.28 -13,-70.25 28.07,-128.46 97.51,-140.17zm1060.9 28.22c5.09,-2.21 9.39,-7.73 14.28,-11.22 5.17,-3.68 10.95,-7.3 16.74,-10.1 13.56,-6.58 28.01,-9.23 43.23,-9.15 85.63,0.46 84.14,71.27 84.14,127.45 0,32.91 1.81,71.4 -0.32,103.93l-56.26 -1.1c-0.45,-38.35 0,-76.94 -0.07,-115.32 -0.07,-36.46 -6.55,-69.28 -52.05,-63.59 -16.96,2.12 -49.69,16.51 -50.13,36.7 -1.02,46.47 1.29,95.11 -0.05,143.16l-55.64 -0.1 0.09 -225.93 55.55 0.59 0.49 24.7zm-682.89 6.31c7.38,-3.39 20.47,-17.81 31.78,-24.08 37.26,-20.68 90.79,-19.19 114.44,18.48 16.95,26.99 14.35,61.3 14.36,92.71 0,35.49 0.45,71.3 -0.13,107.27l-55.08 -0.06c-2.5,-34.76 3.06,-125.25 -2.41,-149.38 -11.1,-48.96 -72.8,-31.99 -92.76,-2.47l-0.02 151.93 -55.83 -0.67c-2.08,-35.6 -0.25,-77.5 -0.16,-113.76 0.09,-35.67 -2.1,-71.75 -48.53,-65.29 -14.65,2.04 -25.95,9.95 -36.81,19.86 -7.93,7.24 -9.23,6.68 -9.29,18.56 -0.15,29.97 2.6,125.95 -1,141.35l-54.6 -0.49 0.62 -225.7 54.44 0.19 0.95 24.87c13.88,-6.36 25.15,-30.38 72.19,-29.98 43,0.36 49.76,15.06 67.86,36.66zm-498.61 176.39c-38.6,35.2 -218.53,47.95 -206.95,-108.98 9.08,-123.14 163.9,-128.43 208.61,-58.87 -3.45,5.96 -31.61,33.65 -36.97,35.23 -44.48,-57.84 -119.93,-24.7 -113.94,43.38 2.65,30.12 21.48,51.28 50.59,58.11 40.42,9.48 65.15,-11.36 85.34,-16.56l13.32 47.7zm719.23 -208.12c2.91,-18.98 0.61,-29.79 6.25,-50.5 13.18,-48.35 61.21,-62.13 107.17,-62.3l6.44 50.75c-41.16,2.89 -64.14,6.77 -63.45,61.85l56.24 0.54 -0.06 49.28 -55.51 0.47c-2.71,16.04 -0.59,150.38 -0.77,179.47 -0.15,25.34 -4.97,49.97 -22.8,68.43 -14.36,14.87 -44.32,24.92 -65.68,24.57l-12 -48.37c15.04,-9.83 28.69,-4.02 39.84,-28.31 7.79,-16.96 5.03,-42.05 5.03,-60.98 -0,-44.39 0.86,-89.65 -0.19,-134.45l-38.31 -0.24c-2.37,-8.77 -1.25,-38.77 -1.03,-49.85l38.83 -0.36zm956.5 -104.57c44.52,-16.2 65.34,48.51 24.55,64.42 -42.24,16.48 -68.03,-48.6 -24.55,-64.42zm-2107.07 -572.82c1.55,146.05 0.09,292.94 0.09,439.09 0,45.18 -2.63,398.45 1.98,434.64 14.39,113 88.57,204.73 196.61,241.23 62.54,21.13 138.64,15 204.49,15l1092.84 0c291.27,0 583.63,-2.5 874.77,0.1 3.46,-70.56 0.54,-148.23 0.54,-219.56 0,-68.65 2.88,-613.55 -2.05,-655.64 -12.95,-110.75 -90.54,-206.14 -196.43,-241.01 -64.08,-21.11 -138.13,-14.59 -205.41,-14.59l-1749.97 0c-48.42,0 -178.7,-2.17 -217.46,0.74z"/>
  <path class="fil1" d="M930.61 710.81c-18.1,-21.6 -24.86,-36.3 -67.86,-36.66 -47.03,-0.4 -58.31,23.62 -72.19,29.98l-0.95 -24.87 -54.44 -0.19 -0.62 225.7 54.6 0.49c3.6,-15.4 0.86,-111.38 1,-141.35 0.06,-11.87 1.36,-11.32 9.29,-18.56 10.86,-9.91 22.16,-17.82 36.81,-19.86 46.42,-6.46 48.62,29.62 48.53,65.29 -0.09,36.26 -1.92,78.16 0.16,113.76l55.83 0.67 0.02 -151.93c19.96,-29.52 81.66,-46.48 92.76,2.47 5.47,24.13 -0.09,114.62 2.41,149.38l55.08 0.06c0.58,-35.97 0.14,-71.79 0.13,-107.27 -0.01,-31.41 2.59,-65.72 -14.36,-92.71 -23.65,-37.67 -77.18,-39.16 -114.44,-18.48 -11.31,6.28 -24.4,20.69 -31.78,24.08z"/>
  <path class="fil1" d="M1988.76 739.34c1.53,36.48 5.24,78.63 -23.22,104.31 -25.02,22.58 -67.56,19.45 -88.1,-8.73 -19.98,-27.41 -14.72,-73.76 10.84,-95.36 25.3,-21.38 72.62,-16.29 100.48,-0.23zm0.21 -52.58c-12.85,-0.2 -27.29,-12.92 -67.33,-12.28 -72.56,1.15 -115.49,54.6 -113.1,128.79 0.77,23.73 6.2,42.42 18.81,62.12 23.88,37.33 72.42,52.62 114.35,40.11 22.1,-6.59 44.52,-31.14 46.87,-31.72l0.53 31.5 55.24 -0.09 0.21 -338.72 -55.2 -0.78 -0.38 121.07z"/>
  <path class="fil1" d="M1451.17 739.52c1.52,12.31 1.32,49.88 -0.71,62.19 -10.1,61.09 -79.7,74.63 -110.37,33.11 -20.09,-27.18 -14.71,-73.14 11.09,-94.89 23.92,-20.16 75.44,-17.63 99.99,-0.41zm5.61 128.72c9.62,19.02 23.95,36.55 47.03,39.86 4.79,-4.68 23.44,-40.61 24.81,-47.69 -10.17,-10.01 -17.64,-10.97 -20.56,-29 -4.07,-25.17 3.7,-126.17 -1.58,-152.1 -10.05,-0.63 -41.1,-2.19 -48.89,0.94l-3.07 10.69c-27.31,-9.48 -35.55,-16.66 -66.78,-16.42 -143.6,1.08 -149.08,193.91 -50.15,228.77 23.16,8.16 48.96,8.28 72.43,0.8 24.37,-7.77 30.73,-18.53 46.75,-35.86z"/>
  <path class="fil1" d="M560.93 727.51c35.99,-8.33 71.94,13.65 78.07,49.54 6.49,37.96 -12.03,72.25 -49.31,80.05 -86.53,18.11 -111.4,-110.47 -28.77,-129.6zm-8.34 -51.23c-69.44,11.71 -110.51,69.92 -97.51,140.17 12.53,67.7 80.6,103.75 146.1,91.28 153.9,-29.28 116.21,-259.24 -48.59,-231.45z"/>
  <path class="fil1" d="M1151.23 679.08l-38.83 0.36c-0.22,11.07 -1.34,41.07 1.03,49.85l38.31 0.24c1.05,44.8 0.19,90.06 0.19,134.45 0,18.93 2.76,44.02 -5.03,60.98 -11.15,24.29 -24.8,18.48 -39.84,28.31l12 48.37c21.36,0.35 51.32,-9.7 65.68,-24.57 17.83,-18.46 22.65,-43.09 22.8,-68.43 0.18,-29.09 -1.94,-163.43 0.77,-179.47l55.51 -0.47 0.06 -49.28 -56.24 -0.54c-0.7,-55.08 22.29,-58.96 63.45,-61.85l-6.44 -50.75c-45.96,0.17 -93.99,13.95 -107.17,62.3 -5.64,20.71 -3.34,31.53 -6.25,50.5z"/>
  <path class="fil1" d="M1613.49 704.5l-0.49 -24.7 -55.55 -0.59 -0.09 225.93 55.64 0.1c1.34,-48.04 -0.97,-96.68 0.05,-143.16 0.44,-20.19 33.18,-34.58 50.13,-36.7 45.5,-5.69 51.98,27.13 52.05,63.59 0.07,38.39 -0.38,76.98 0.07,115.32l56.26 1.1c2.13,-32.52 0.32,-71.01 0.32,-103.93 -0,-56.18 1.49,-126.99 -84.14,-127.45 -15.21,-0.08 -29.66,2.57 -43.23,9.15 -5.78,2.8 -11.57,6.42 -16.74,10.1 -4.89,3.48 -9.19,9.01 -14.28,11.22z"/>
  <path class="fil1" d="M432 887.2l-13.32 -47.7c-20.19,5.2 -44.91,26.04 -85.34,16.56 -29.12,-6.83 -47.94,-27.99 -50.59,-58.11 -5.99,-68.07 69.46,-101.22 113.94,-43.38 5.36,-1.58 33.52,-29.27 36.97,-35.23 -44.71,-69.56 -199.53,-64.27 -208.61,58.87 -11.58,156.94 168.34,144.18 206.95,108.98z"/>
  <path class="fil2" d="M560.93 727.51c-82.63,19.12 -57.76,147.7 28.77,129.6 37.28,-7.8 55.8,-42.1 49.31,-80.05 -6.14,-35.89 -42.09,-57.87 -78.07,-49.54z"/>
  <path class="fil2" d="M1988.76 739.34c-27.85,-16.06 -75.18,-21.16 -100.48,0.23 -25.56,21.6 -30.82,67.95 -10.84,95.36 20.54,28.18 63.09,31.31 88.1,8.73 28.45,-25.68 24.75,-67.83 23.22,-104.31z"/>
  <path class="fil2" d="M1451.17 739.52c-24.55,-17.22 -76.07,-19.75 -99.99,0.41 -25.8,21.74 -31.18,67.71 -11.09,94.89 30.68,41.52 100.27,27.98 110.37,-33.11 2.04,-12.31 2.23,-49.88 0.71,-62.19z"/>
  <polygon class="fil1" points="2090.78,905.18 2146.55,905.27 2146.83,679.86 2090.91,679.3 "/>
  <path class="fil3" d="M2107.73 574.51c-43.48,15.82 -17.7,80.9 24.55,64.42 40.79,-15.91 19.98,-80.63 -24.55,-64.42z"/>
 </g>
</svg>
