<?xml version="1.0" encoding="UTF-8"?>
<!DOCTYPE svg PUBLIC "-//W3C//DTD SVG 1.1//EN" "http://www.w3.org/Graphics/SVG/1.1/DTD/svg11.dtd">
<!-- Creator: CorelDRAW 2021 (64-Bit) -->
<svg xmlns="http://www.w3.org/2000/svg" xml:space="preserve" width="91.4932mm" height="20.6701mm" version="1.1" style="shape-rendering:geometricPrecision; text-rendering:geometricPrecision; image-rendering:optimizeQuality; fill-rule:evenodd; clip-rule:evenodd"
viewBox="0 0 1634.28 369.22"
 xmlns:xlink="http://www.w3.org/1999/xlink"
 xmlns:xodm="http://www.corel.com/coreldraw/odm/2003">
 <defs>
  <style type="text/css">
   <![CDATA[
    .fil0 {fill:#003CA7}
   ]]>
  </style>
 </defs>
 <g id="Capa_x0020_1">
  <metadata id="CorelCorpID_0Corel-Layer"/>
  <g id="_1920473475632">
   <path class="fil0" d="M598.01 122.9c-15.33,-18.29 -21.05,-30.74 -57.47,-31.05 -39.83,-0.34 -49.38,20 -61.14,25.39l-0.8 -21.06 -46.1 -0.16 -0.53 191.15 46.25 0.41c3.05,-13.04 0.73,-94.33 0.85,-119.72 0.05,-10.06 1.15,-9.58 7.87,-15.72 9.2,-8.4 18.77,-15.1 31.17,-16.82 39.32,-5.47 41.17,25.09 41.1,55.29 -0.08,30.71 -1.63,66.2 0.14,96.35l47.29 0.57 0.02 -128.67c16.9,-25 69.16,-39.37 78.56,2.09 4.64,20.44 -0.07,97.07 2.05,126.51l46.65 0.05c0.49,-30.47 0.12,-60.8 0.11,-90.85 -0.01,-26.6 2.19,-55.66 -12.16,-78.52 -20.03,-31.9 -65.37,-33.17 -96.92,-15.65 -9.58,5.32 -20.67,17.52 -26.91,20.4z"/>
   <path class="fil0" d="M1494.19 147.06c1.3,30.89 4.44,66.59 -19.66,88.34 -21.19,19.13 -57.22,16.47 -74.62,-7.39 -16.92,-23.21 -12.46,-62.47 9.18,-80.76 21.43,-18.11 61.51,-13.8 85.1,-0.19zm0.18 -44.53c-10.89,-0.17 -23.12,-10.94 -57.02,-10.4 -61.46,0.97 -97.81,46.24 -95.79,109.08 0.65,20.1 5.25,35.92 15.93,52.61 20.23,31.62 61.33,44.56 96.84,33.97 18.72,-5.58 37.7,-26.37 39.69,-26.87l0.45 26.68 46.79 -0.07 0.18 -286.87 -46.75 -0.66 -0.32 102.54z"/>
   <path class="fil0" d="M1038.89 147.22c1.28,10.42 1.12,42.24 -0.6,52.67 -8.55,51.74 -67.5,63.2 -93.48,28.04 -17.01,-23.02 -12.46,-61.95 9.39,-80.36 20.26,-17.07 63.89,-14.93 84.69,-0.35zm4.75 109.02c8.15,16.1 20.28,30.95 39.83,33.76 4.06,-3.97 19.85,-34.39 21.02,-40.39 -8.61,-8.47 -14.94,-9.29 -17.41,-24.56 -3.45,-21.32 3.13,-106.85 -1.34,-128.82 -8.51,-0.53 -34.8,-1.85 -41.41,0.79l-2.6 9.06c-23.13,-8.03 -30.11,-14.11 -56.56,-13.91 -121.62,0.91 -126.26,164.23 -42.47,193.75 19.61,6.91 41.47,7.01 61.34,0.68 20.64,-6.58 26.03,-15.69 39.6,-30.37z"/>
   <path class="fil0" d="M284.92 137.05c30.48,-7.05 60.93,11.56 66.12,41.96 5.5,32.15 -10.19,61.19 -41.76,67.8 -73.28,15.34 -94.34,-93.56 -24.36,-109.76zm-7.06 -43.39c-58.81,9.91 -93.6,59.22 -82.58,118.71 10.61,57.34 68.26,87.86 123.74,77.31 130.34,-24.8 98.42,-219.55 -41.15,-196.02z"/>
   <path class="fil0" d="M784.86 96.03l-32.89 0.31c-0.19,9.38 -1.13,34.79 0.87,42.22l32.45 0.21c0.89,37.94 0.16,76.27 0.16,113.87 0,16.03 2.34,37.28 -4.26,51.64 -9.44,20.57 -21,15.65 -33.75,23.98l10.16 40.96c18.09,0.29 43.46,-8.21 55.63,-20.81 15.1,-15.64 19.18,-36.5 19.31,-57.96 0.15,-24.64 -1.65,-138.42 0.65,-152l47.02 -0.4 0.05 -41.73 -47.63 -0.46c-0.59,-46.65 18.88,-49.94 53.74,-52.38l-5.46 -42.98c-38.93,0.14 -79.6,11.81 -90.76,52.76 -4.78,17.54 -2.83,26.7 -5.29,42.77z"/>
   <path class="fil0" d="M1176.36 117.56l-0.41 -20.92 -47.05 -0.5 -0.08 191.35 47.12 0.09c1.14,-40.69 -0.82,-81.88 0.04,-121.24 0.38,-17.1 28.1,-29.29 42.46,-31.08 38.54,-4.82 44.03,22.98 44.08,53.86 0.06,32.51 -0.32,65.19 0.06,97.67l47.64 0.93c1.8,-27.55 0.27,-60.14 0.27,-88.02 -0,-47.58 1.26,-107.55 -71.26,-107.94 -12.89,-0.07 -25.12,2.18 -36.61,7.75 -4.9,2.37 -9.8,5.43 -14.18,8.55 -4.14,2.95 -7.78,7.63 -12.09,9.5z"/>
   <path class="fil0" d="M175.72 272.29l-11.28 -40.4c-17.1,4.4 -38.04,22.05 -72.27,14.02 -24.66,-5.78 -40.6,-23.71 -42.85,-49.22 -5.07,-57.65 58.83,-85.72 96.5,-36.74 4.54,-1.33 28.39,-24.79 31.31,-29.84 -37.87,-58.91 -168.98,-54.43 -176.68,49.86 -9.81,132.91 142.58,122.11 175.27,92.3z"/>
   <polygon class="fil0" points="1580.59,287.52 1627.82,287.59 1628.06,96.69 1580.7,96.22 "/>
   <path class="fil0" d="M1594.94 7.46c-36.83,13.4 -14.99,68.52 20.79,54.56 34.55,-13.48 16.92,-68.28 -20.79,-54.56z"/>
  </g>
 </g>
</svg>
